<?xml version="1.0" encoding="UTF-8" standalone="no"?>
<!-- Created with Inkscape (http://www.inkscape.org/) -->

<svg
   xmlns:dc="http://purl.org/dc/elements/1.1/"
   xmlns:cc="http://creativecommons.org/ns#"
   xmlns:rdf="http://www.w3.org/1999/02/22-rdf-syntax-ns#"
   xmlns:svg="http://www.w3.org/2000/svg"
   xmlns="http://www.w3.org/2000/svg"
   version="1.1"
   width="677.5"
   height="202.5"
   id="svg2"
   xml:space="preserve"><metadata
     id="metadata8"><rdf:RDF><cc:Work
         rdf:about=""><dc:format>image/svg+xml</dc:format><dc:type
           rdf:resource="http://purl.org/dc/dcmitype/StillImage" /><dc:title></dc:title></cc:Work></rdf:RDF></metadata><defs
     id="defs6"><clipPath
       id="clipPath36"><path
         d="m 8.23047,1614.45 5409.99953,0 0,-1608.54766 -5409.99953,0 0,1608.54766 z"
         id="path38" /></clipPath><clipPath
       id="clipPath50"><path
         d="m 8.23047,1614.45 5409.99953,0 0,-1608.54766 -5409.99953,0 0,1608.54766 z"
         id="path52" /></clipPath></defs><g
     transform="matrix(1.25,0,0,-1.25,0,202.5)"
     id="g10"><g
       transform="scale(0.1,0.1)"
       id="g12"><path
         d="m 1002.16,949.184 c 3.9,3.644 8.72,5.441 14.42,5.441 6.65,0 12.44,-1.66 17.37,-4.918 4.96,-3.277 7.45,-7.965 7.45,-14.125 l 0,-412.609 c 0,-5.985 -2.49,-10.653 -7.45,-13.926 -4.93,-3.301 -10.72,-4.91 -17.37,-4.91 -5.7,0 -10.52,1.785 -14.42,5.429 -3.894,3.633 -5.851,8.094 -5.851,13.407 l 0,412.609 c 0,5.449 1.957,10 5.851,13.602 l 0,0 z m -5.851,-700.653 0,218.731 c 25.891,-25.696 56.001,-38.516 90.381,-38.516 37.08,0 61.26,10.086 72.51,30.332 11.29,20.274 16.93,44.383 16.93,72.461 l 0,395.27 c 0,68.089 -27.64,102.151 -82.79,102.151 -36.05,0 -68.36,-11.92 -97.031,-35.769 l 0,23.859 -134.704,0 0,-768.519 134.704,0"
         id="path14"
         style="fill:#2e3190;fill-opacity:1;fill-rule:evenodd;stroke:none" /><path
         d="m 1222.86,1016.43 137.54,0 0,-26.91 c 39.93,26.01 77.74,39.03 113.43,39.03 30.49,0 49.86,-9.01 58,-27.09 8.14,-18.038 12.22,-41.636 12.22,-70.757 l 0,-122.113 -137.6,0 0,117.164 c 0,4.828 -1.74,9.351 -5.16,13.637 -3.45,4.277 -8.97,6.394 -16.49,6.394 -7.52,0 -13.44,-2.039 -17.82,-6.097 -4.38,-4.059 -6.58,-8.688 -6.58,-13.934 l 0,-496.578 -137.54,0 0,587.254"
         id="path16"
         style="fill:#2e3190;fill-opacity:1;fill-rule:evenodd;stroke:none" /><path
         d="m 1583.68,429.176 0,587.274 135.91,0 0,-587.274 -135.91,0 0,0 z m 0,634.274 0,125.1 135.91,0 0,-125.1 -135.91,0"
         id="path18"
         style="fill:#ed1d30;fill-opacity:1;fill-rule:evenodd;stroke:none" /><path
         d="m 1756.67,429.176 0,587.254 137.55,0 0,-27.953 c 32.86,26.703 67.46,40.103 103.77,40.103 29.25,0 52.95,-13.02 71.12,-39.033 35.52,26.013 73.33,39.033 113.43,39.033 52.59,0 78.93,-35.002 78.93,-104.943 l 0,-494.461 -137.61,0 0,496.547 c 0,6.125 -1.93,11.007 -5.82,14.636 -3.93,3.61 -8.81,5.426 -14.76,5.426 -7.36,0 -13.44,-1.844 -18.24,-5.527 -4.77,-3.699 -7.2,-8.559 -7.2,-14.535 l 0,-496.547 -137.57,0 0,497.398 c 0,5.727 -1.99,10.352 -6,13.887 -4,3.559 -8.89,5.324 -14.71,5.324 -7.39,0 -13.45,-1.691 -18.22,-5.125 -4.73,-3.387 -7.12,-8.117 -7.12,-14.086 l 0,-497.398 -137.55,0"
         id="path20"
         style="fill:#2e3190;fill-opacity:1;fill-rule:evenodd;stroke:none" /><path
         d="m 2441.48,934.449 c 0,4.555 1.63,8.828 4.95,12.824 3.3,3.954 8.13,5.934 14.45,5.934 7.05,0 13.12,-1.855 18.15,-5.539 5.03,-3.684 7.55,-8.102 7.55,-13.219 l 0,-169.199 -45.1,0 0,169.199 z m 45.1,-411.281 c 0,-4.734 -2.6,-9.023 -7.77,-12.93 -5.22,-3.906 -11.19,-5.8 -17.93,-5.8 -6.32,0 -11.15,1.953 -14.45,5.949 -3.32,3.953 -4.95,8.25 -4.95,12.859 l 0,177.414 179.92,0 0,229.395 c 0,40.547 -11.54,67.058 -34.73,79.625 -23.15,12.54 -45.28,18.79 -66.35,18.79 l -110.75,0 c -31.72,0 -56.79,-8.55 -75.22,-25.72 -18.47,-17.148 -27.72,-41.664 -27.72,-73.566 l 0,-401.582 c 0,-15.313 1.78,-29.793 5.33,-43.465 3.51,-13.653 12.88,-26.242 28,-37.727 15.18,-11.492 38.38,-17.234 69.61,-17.234 l 111.72,0 c 27.37,0 50.9,6.094 70.57,18.242 19.69,12.168 29.54,38.828 29.54,80 l 0,116.98 -134.82,0 0,-121.23"
         id="path22"
         style="fill:#2e3190;fill-opacity:1;fill-rule:evenodd;stroke:none" /><path
         d="m 3010.48,956.273 c 14.41,0 21.64,-6.687 21.64,-20.031 l 0,-393.277 c 0,-5.43 -1.91,-9.973 -5.78,-13.703 -3.81,-3.68 -9.11,-5.516 -15.86,-5.516 -6.59,0 -12.3,1.719 -17.15,5.223 -4.82,3.488 -7.24,8.136 -7.24,13.996 l 0,393.277 c 0,13.344 8.1,20.031 24.39,20.031 l 0,0 z M 2854.44,346.02 c 0,-22.704 6.76,-44.61 20.36,-65.762 13.53,-21.133 41.77,-31.707 84.63,-31.707 l 92.55,0 c 51,0 83.38,12.586 97.11,37.683 13.73,25.129 20.63,56.008 20.63,92.578 l 0,642.138 -137.6,0 0,-28.825 c -29.57,27.305 -62.93,40.945 -100.02,40.945 -24.74,0 -44.87,-7.23 -60.33,-21.55 -15.51,-14.395 -23.26,-41.305 -23.26,-80.704 l 0,-385.722 c 0,-66.457 28.18,-99.68 84.55,-99.68 15.92,0 33.14,4.453 51.62,13.371 18.46,8.906 34.3,18.887 47.44,29.961 l 0,-150.246 c 0,-6.023 -2.26,-10.594 -6.8,-13.738 -4.53,-3.137 -9.14,-4.727 -13.93,-4.727 -5.66,0 -10.86,1.59 -15.52,4.668 -4.69,3.172 -7.01,7.676 -7.01,13.652 l 0,26.18 -134.42,0 0,-18.515"
         id="path24"
         style="fill:#2e3190;fill-opacity:1;fill-rule:evenodd;stroke:none" /><path
         d="m 3209.76,1016.43 137.6,0 0,-26.91 c 39.9,26.01 77.71,39.03 113.41,39.03 30.49,0 49.87,-9.01 57.99,-27.09 8.14,-18.038 12.18,-41.636 12.18,-70.757 l 0,-122.113 -137.53,0 0,117.164 c 0,4.828 -1.8,9.351 -5.23,13.637 -3.45,4.277 -8.93,6.394 -16.43,6.394 -7.52,0 -13.46,-2.039 -17.83,-6.097 -4.42,-4.059 -6.56,-8.688 -6.56,-13.934 l 0,-496.578 -137.6,0 0,587.254"
         id="path26"
         style="fill:#2e3190;fill-opacity:1;fill-rule:evenodd;stroke:none" /><path
         d="m 3713.35,947.668 c 4.14,3.684 9.43,5.539 15.93,5.539 7.5,0 13.21,-2.269 17.11,-6.812 3.93,-4.528 5.88,-8.797 5.88,-12.833 l 0,-409.457 c 0,-3.914 -1.97,-8.183 -5.97,-12.793 -3.99,-4.578 -9.65,-6.874 -17.02,-6.874 -6.5,0 -11.79,1.894 -15.93,5.734 -4.14,3.828 -6.17,8.465 -6.17,13.933 l 0,409.457 c 0,5.715 2.03,10.399 6.17,14.106 l 0,0 z m -28.62,-518.492 89.99,0 c 74.94,0 112.4,33.926 112.4,101.765 l 0,393.016 c 0,23.125 -6.84,46.301 -20.45,69.574 -13.6,23.319 -44.24,34.939 -91.95,34.939 l -89.99,0 c -28.45,0 -54.33,-7.04 -77.54,-21.14 -23.25,-14.053 -34.83,-41.85 -34.83,-83.373 l 0,-393.016 c 0,-67.839 37.44,-101.765 112.37,-101.765"
         id="path28"
         style="fill:#2e3190;fill-opacity:1;fill-rule:evenodd;stroke:none" /><path
         d="m 4253.47,428.949 -137.56,0 0,25.391 c -32.89,-25.039 -69.43,-37.539 -109.65,-37.539 -30.37,0 -50.32,9.113 -59.8,27.316 -9.46,18.192 -14.19,41.992 -14.19,71.465 l 0,500.628 137.61,0 0,-496.343 c 0,-5.137 1.79,-9.773 5.37,-13.847 3.61,-4.161 8.71,-6.219 15.32,-6.219 8.3,0 14.6,2.137 18.87,6.414 4.3,4.238 6.47,8.82 6.47,13.652 l 0,496.343 137.56,0 0,-587.261"
         id="path30"
         style="fill:#2e3190;fill-opacity:1;fill-rule:evenodd;stroke:none" /><g
         id="g32"><g
           clip-path="url(#clipPath36)"
           id="g34"><path
             d="m 4435.53,948.129 c 3.91,3.633 8.74,5.433 14.44,5.433 6.64,0 12.44,-1.652 17.41,-4.925 4.93,-3.278 7.43,-7.949 7.43,-14.106 l 0,-411.969 c 0,-5.984 -2.5,-10.613 -7.43,-13.906 -4.97,-3.289 -10.77,-4.902 -17.41,-4.902 -5.7,0 -10.53,1.797 -14.44,5.402 -3.9,3.672 -5.85,8.106 -5.85,13.406 l 0,411.969 c 0,5.446 1.95,9.985 5.85,13.598 l 0,0 z m -5.85,-699.578 0,218.387 c 25.93,-25.665 56.05,-38.477 90.44,-38.477 37.11,0 61.32,10.109 72.59,30.305 11.27,20.242 16.91,44.324 16.91,72.351 l 0,394.66 c 0,67.989 -27.64,101.993 -82.81,101.993 -36.1,0 -68.44,-11.91 -97.13,-35.708 l 0,23.828 -134.82,0 0,-767.339 134.82,0"
             id="path40"
             style="fill:#2e3190;fill-opacity:1;fill-rule:evenodd;stroke:none" /><path
             d="m 8.23047,983.207 c 0,0 1468.87953,546.263 2731.40953,546.263 1262.5,0 2634.3,-558.408 2682.83,-558.408 48.58,0 -1420.33,667.658 -2670.69,643.388 C 1501.4,1590.16 335.996,1141.02 8.23047,983.207"
             id="path42"
             style="fill:#2e3190;fill-opacity:1;fill-rule:evenodd;stroke:none" /></g></g><path
         d="m 926.738,116.84 20.157,0 0,-49.922 32.343,49.922 20.625,0 0,-79.3752 -20.156,0 0,50.6446 -32.812,-50.6446 -20.157,0 0,79.3752"
         id="path44"
         style="fill:#2e3190;fill-opacity:1;fill-rule:nonzero;stroke:none" /><g
         id="g46"><g
           clip-path="url(#clipPath50)"
           id="g48"><path
             d="m 1062.99,116.84 20.93,0 0,-29.0627 30.16,0 0,29.0627 20.94,0 0,-79.3752 -20.94,0 0,33.2813 -30.16,0 0,-33.2813 -20.93,0 0,79.3752"
             id="path54"
             style="fill:#2e3190;fill-opacity:1;fill-rule:nonzero;stroke:none" /><path
             d="m 1241.68,144.398 20.94,0 0,-40.312 c 2.53,3.945 5.57,6.926 9.11,8.898 3.54,1.993 7.55,2.977 12.09,2.977 8.5,0 15.45,-4.121 20.86,-12.352 5.4,-8.2418 8.1,-18.0973 8.1,-29.5426 0,-11.5039 -3.03,-21.1914 -9.07,-29.082 -6.05,-7.8906 -13.2,-11.836 -21.46,-11.836 -3.74,0 -7.24,0.9375 -10.52,2.793 -3.29,1.875 -6.32,4.6484 -9.11,8.3203 l 0,-39.55858 -20.94,0 0,39.55858 c -3.03,-3.6719 -6.28,-6.4453 -9.74,-8.3203 -3.46,-1.8555 -7.13,-2.793 -11.01,-2.793 -8.55,0 -15.63,3.9571 -21.2,11.8672 -5.57,7.9102 -8.36,17.8516 -8.36,29.8438 0,11.875 3.18,21.707 9.56,29.4606 6.36,7.766 13.26,11.641 20.67,11.641 4.03,0 7.71,-0.945 11.05,-2.84 3.33,-1.894 6.34,-4.726 9.03,-8.516 l 0,39.793 z m -14.07,-44.5308 c -3.87,0 -7.26,-2.3242 -10.17,-6.961 -2.9,-4.6406 -4.35,-10.7617 -4.35,-18.3515 0,-7.6445 1.35,-13.7774 4.06,-18.3867 2.71,-4.6211 6.07,-6.9336 10.09,-6.9336 4.07,0 7.52,2.3125 10.36,6.9336 2.82,4.6093 4.24,10.9179 4.24,18.8945 0,8.7031 -1.54,15 -4.62,18.9258 -3.08,3.9179 -6.28,5.8789 -9.61,5.8789 l 0,0 z m 49.18,0 c -4.27,0 -7.76,-2.4883 -10.45,-7.4805 -2.69,-4.9883 -4.03,-11.2305 -4.03,-18.7187 0,-7.5 1.43,-13.4492 4.29,-17.8321 2.86,-4.3945 6.26,-6.6015 10.19,-6.6015 3.94,0 7.33,2.4883 10.17,7.4492 2.83,4.9726 4.25,10.8203 4.25,17.5586 0,7.2187 -1.29,13.2812 -3.87,18.2148 -2.6,4.9414 -6.11,7.4102 -10.55,7.4102"
             id="path56"
             style="fill:#2e3190;fill-opacity:1;fill-rule:nonzero;stroke:none" /></g></g><path
         d="m 2472.81,116.84 20.93,0 0,-29.0627 30.16,0 0,29.0627 20.94,0 0,-79.3752 -20.94,0 0,33.2813 -30.16,0 0,-33.2813 -20.93,0 0,79.3752"
         id="path58"
         style="fill:#2e3190;fill-opacity:1;fill-rule:nonzero;stroke:none" /><path
         d="m 2608.63,116.84 20.94,0 0,-32.9767 21.08,0 c 8.27,0 14.6,-0.5781 18.95,-1.75 4.36,-1.1797 8.05,-3.7188 11.08,-7.6563 3,-3.9453 4.51,-8.5742 4.51,-13.9062 0,-7.6641 -2.64,-13.4375 -7.92,-17.293 -5.28,-3.8672 -13.19,-5.793 -23.75,-5.793 l -44.89,0 0,79.3752 z m 20.94,-65.9377 19.53,0 c 5.1,0 8.79,0.793 11.08,2.375 2.3,1.5821 3.45,4.1407 3.45,7.6836 0,3.8203 -1.49,6.4258 -4.46,7.8321 -2.97,1.4062 -8.29,2.1093 -15.98,2.1093 l -13.62,0 0,-20 z m 67.65,65.9377 20.94,0 0,-79.3752 -20.94,0 0,79.3752"
         id="path60"
         style="fill:#2e3190;fill-opacity:1;fill-rule:nonzero;stroke:none" /><path
         d="m 2827.52,62.7773 20.93,-3.4375 c -2.68,-7.6836 -6.93,-13.5429 -12.73,-17.5781 -5.8,-4.0039 -13.05,-6.0156 -21.76,-6.0156 -13.79,0 -24.01,4.5039 -30.63,13.4961 -5.22,7.2187 -7.84,16.3086 -7.84,27.3164 0,13.1133 3.44,23.4062 10.3,30.8474 6.88,7.434 15.56,11.153 26.07,11.153 11.78,0 21.09,-3.907 27.91,-11.688 6.82,-7.7929 10.09,-19.7265 9.78,-35.8124 l -52.5,0 c 0.16,-6.2188 1.84,-11.043 5.07,-14.5 3.23,-3.457 7.24,-5.1953 12.07,-5.1953 3.27,0 6.04,0.9062 8.27,2.7148 2.23,1.7969 3.91,4.6953 5.06,8.6992 l 0,0 z m 1.25,21.086 c -0.15,6.082 -1.72,10.7031 -4.7,13.8672 -2.98,3.1525 -6.62,4.7345 -10.89,4.7345 -4.59,0 -8.37,-1.668 -11.34,-5.0002 -2.99,-3.3398 -4.46,-7.871 -4.41,-13.6015 l 31.34,0"
         id="path62"
         style="fill:#2e3190;fill-opacity:1;fill-rule:nonzero;stroke:none" /><path
         d="m 3112.19,116.84 71.88,0 0,-17.0314 -25.46,0 0,-62.3438 -20.94,0 0,62.3438 -25.48,0 0,17.0314"
         id="path64"
         style="fill:#2e3190;fill-opacity:1;fill-rule:nonzero;stroke:none" /><path
         d="m 3285.1,62.7773 20.94,-3.4375 c -2.7,-7.6836 -6.94,-13.5429 -12.74,-17.5781 -5.8,-4.0039 -13.05,-6.0156 -21.77,-6.0156 -13.8,0 -24,4.5039 -30.62,13.4961 -5.23,7.2187 -7.84,16.3086 -7.84,27.3164 0,13.1133 3.43,23.4062 10.3,30.8474 6.86,7.434 15.56,11.153 26.06,11.153 11.79,0 21.09,-3.907 27.91,-11.688 6.82,-7.7929 10.08,-19.7265 9.79,-35.8124 l -52.5,0 c 0.14,-6.2188 1.83,-11.043 5.06,-14.5 3.23,-3.457 7.25,-5.1953 12.07,-5.1953 3.28,0 6.03,0.9062 8.27,2.7148 2.24,1.7969 3.93,4.6953 5.07,8.6992 l 0,0 z m 1.25,21.086 c -0.16,6.082 -1.72,10.7031 -4.71,13.8672 -2.98,3.1525 -6.61,4.7345 -10.89,4.7345 -4.58,0 -8.36,-1.668 -11.35,-5.0002 -2.98,-3.3398 -4.45,-7.871 -4.4,-13.6015 l 31.35,0"
         id="path66"
         style="fill:#2e3190;fill-opacity:1;fill-rule:nonzero;stroke:none" /><path
         d="m 3356.54,37.4648 28.57,40.8907 -27.32,38.4845 25.54,0 14.03,-21.8244 14.78,21.8244 24.56,0 -26.82,-37.6056 29.32,-41.7696 -25.53,0 -16.31,24.5899 -16.25,-24.5899 -24.57,0"
         id="path68"
         style="fill:#2e3190;fill-opacity:1;fill-rule:nonzero;stroke:none" /><path
         d="m 3493.45,116.84 20.94,0 0,-29.0627 30.16,0 0,29.0627 20.94,0 0,-79.3752 -20.94,0 0,33.2813 -30.16,0 0,-33.2813 -20.94,0 0,79.3752"
         id="path70"
         style="fill:#2e3190;fill-opacity:1;fill-rule:nonzero;stroke:none" /><path
         d="m 1369.88,78.2773 c 0,6.9532 1.7,13.6993 5.14,20.2149 3.43,6.5118 8.31,11.4848 14.61,14.9098 6.3,3.438 13.33,5.157 21.1,5.157 12,0 21.84,-3.907 29.51,-11.68 7.67,-7.7813 11.5,-17.6251 11.5,-29.5001 0,-11.9922 -3.87,-21.9258 -11.62,-29.8164 -7.74,-7.8906 -17.49,-11.8164 -29.24,-11.8164 -7.27,0 -14.21,1.6406 -20.8,4.9219 -6.61,3.2812 -11.63,8.0976 -15.06,14.4336 -3.44,6.3476 -5.14,14.0742 -5.14,23.1757 l 0,0 z m 21.55,-1.125 c 0,-7.8906 1.86,-13.9062 5.6,-18.0937 3.73,-4.1914 8.33,-6.2813 13.81,-6.2813 5.48,0 10.07,2.0899 13.78,6.2813 3.7,4.1875 5.56,10.2734 5.56,18.2422 0,7.7617 -1.86,13.7578 -5.56,17.9492 -3.71,4.1797 -8.3,6.277 -13.78,6.277 -5.48,0 -10.08,-2.0973 -13.81,-6.277 -3.74,-4.1914 -5.6,-10.2148 -5.6,-18.0977"
         id="path72"
         style="fill:#2e3190;fill-opacity:1;fill-rule:nonzero;stroke:none" /><path
         d="m 1510.17,116.84 19.53,0 0,-11.649 c 2.54,3.985 5.99,7.207 10.34,9.668 4.34,2.469 9.16,3.7 14.45,3.7 9.23,0 17.07,-3.602 23.52,-10.821 6.44,-7.215 9.66,-17.2536 9.66,-30.1442 0,-13.2227 -3.24,-23.5079 -9.74,-30.8516 -6.5,-7.332 -14.36,-10.9961 -23.6,-10.9961 -4.4,0 -8.38,0.8711 -11.95,2.6094 -3.57,1.7383 -7.33,4.7343 -11.27,8.9648 l 0,-40.01171 -20.94,0 0,109.53141 z m 20.62,-38.3088 c 0,-8.8867 1.77,-15.4492 5.32,-19.707 3.53,-4.2383 7.85,-6.3594 12.94,-6.3594 4.88,0 8.95,1.9454 12.19,5.8516 3.24,3.8867 4.87,10.293 4.87,19.1797 0,8.2891 -1.68,14.4414 -5.02,18.457 -3.34,4.0313 -7.48,6.0429 -12.42,6.0429 -5.13,0 -9.4,-1.973 -12.79,-5.9257 -3.39,-3.9453 -5.09,-9.7851 -5.09,-17.5391"
         id="path74"
         style="fill:#2e3190;fill-opacity:1;fill-rule:nonzero;stroke:none" /><path
         d="m 1647.32,116.84 26.24,0 19.46,-55.3009 19.82,55.3009 26.04,0 0,-79.3752 -17.96,0 0,52.2461 -19.22,-52.2461 -18.02,0 -18.39,52.2461 0,-52.2461 -17.97,0 0,79.3752"
         id="path76"
         style="fill:#2e3190;fill-opacity:1;fill-rule:nonzero;stroke:none" /><path
         d="m 1818.06,92.3086 -18.91,3.4375 c 2.14,7.7539 5.82,13.4879 11.04,17.2189 5.22,3.73 12.99,5.594 23.27,5.594 9.35,0 16.31,-1.102 20.89,-3.321 4.57,-2.226 7.8,-5.027 9.67,-8.437 1.86,-3.406 2.79,-9.676 2.79,-18.7893 l -0.31,-24.4805 c 0,-6.9726 0.33,-12.1093 1.02,-15.4296 0.68,-3.3008 1.95,-6.8555 3.82,-10.6368 l -20.78,0 c -0.55,1.3985 -1.22,3.4961 -2.01,6.2618 -0.35,1.2578 -0.6,2.0898 -0.75,2.4882 -3.58,-3.4843 -7.41,-6.1132 -11.48,-7.8515 -4.08,-1.7461 -8.42,-2.6172 -13.04,-2.6172 -8.16,0 -14.58,2.207 -19.26,6.6133 -4.71,4.4023 -7.05,9.9804 -7.05,16.7187 0,4.461 1.06,8.4375 3.19,11.9336 2.13,3.4844 5.12,6.1524 8.96,8.0274 3.84,1.8554 9.38,3.4765 16.61,4.8632 9.77,1.836 16.53,3.5352 20.3,5.125 l 0,2.1211 c 0,4.0704 -0.99,6.9727 -2.98,8.711 -1.98,1.7386 -5.73,2.6056 -11.23,2.6056 -3.72,0 -6.62,-0.75 -8.71,-2.254 -2.08,-1.504 -3.76,-4.1329 -5.05,-7.9024 l 0,0 z m 27.97,-16.875 c -2.67,-0.8867 -6.91,-1.9414 -12.69,-3.1719 -5.79,-1.2422 -9.58,-2.4414 -11.36,-3.6328 -2.72,-1.9141 -4.08,-4.3672 -4.08,-7.3164 0,-2.9102 1.09,-5.418 3.26,-7.5469 2.18,-2.1094 4.96,-3.1758 8.32,-3.1758 3.76,0 7.34,1.2305 10.76,3.6914 2.53,1.875 4.19,4.1602 4.97,6.8868 0.54,1.7656 0.82,5.1445 0.82,10.125 l 0,4.1406"
         id="path78"
         style="fill:#2e3190;fill-opacity:1;fill-rule:nonzero;stroke:none" /><path
         d="m 1929.2,116.84 20.93,0 0,-62.3439 30.32,0 0,62.3439 20.93,0 0,-62.3439 8.29,0 0,-37.9688 -17.04,0 0,20.9375 -63.43,0 0,79.3752"
         id="path80"
         style="fill:#2e3190;fill-opacity:1;fill-rule:nonzero;stroke:none" /><path
         d="m 2066.01,116.84 20.16,0 0,-49.922 32.34,49.922 20.63,0 0,-79.3752 -20.16,0 0,50.6446 -32.81,-50.6446 -20.16,0 0,79.3752"
         id="path82"
         style="fill:#2e3190;fill-opacity:1;fill-rule:nonzero;stroke:none" /><path
         d="m 3623.87,78.2773 c 0,6.9532 1.73,13.6993 5.16,20.2149 3.44,6.5118 8.31,11.4848 14.6,14.9098 6.3,3.438 13.34,5.157 21.1,5.157 12.01,0 21.84,-3.907 29.52,-11.68 7.66,-7.7813 11.5,-17.6251 11.5,-29.5001 0,-11.9922 -3.86,-21.9258 -11.62,-29.8164 -7.74,-7.8906 -17.49,-11.8164 -29.24,-11.8164 -7.28,0 -14.21,1.6406 -20.81,4.9219 -6.59,3.2812 -11.61,8.0976 -15.05,14.4336 -3.43,6.3476 -5.16,14.0742 -5.16,23.1757 l 0,0 z m 21.57,-1.125 c 0,-7.8906 1.86,-13.9062 5.6,-18.0937 3.73,-4.1914 8.34,-6.2813 13.82,-6.2813 5.46,0 10.05,2.0899 13.76,6.2813 3.72,4.1875 5.57,10.2734 5.57,18.2422 0,7.7617 -1.85,13.7578 -5.57,17.9492 -3.71,4.1797 -8.3,6.277 -13.76,6.277 -5.48,0 -10.09,-2.0973 -13.82,-6.277 -3.74,-4.1914 -5.6,-10.2148 -5.6,-18.0977"
         id="path84"
         style="fill:#2e3190;fill-opacity:1;fill-rule:nonzero;stroke:none" /><path
         d="m 3770.61,116.84 70.32,0 0,-79.3752 -20.94,0 0,62.3438 -28.6,0 0,-35.6914 c 0,-9.082 -1.05,-15.4492 -3.14,-19.1211 -2.09,-3.6719 -4.41,-6.0664 -6.96,-7.2188 -2.54,-1.1406 -6.63,-1.7187 -12.27,-1.7187 -3.34,0 -7.76,0.4492 -13.25,1.3398 l 0,15.4375 c 0.45,0 1.62,-0.0468 3.52,-0.1445 2.21,-0.1562 3.9,-0.2266 5.1,-0.2266 2.84,0 4.61,0.9375 5.25,2.8047 0.65,1.875 0.97,7.0782 0.97,15.6055 l 0,45.965"
         id="path86"
         style="fill:#2e3190;fill-opacity:1;fill-rule:nonzero;stroke:none" /><path
         d="m 3899.46,78.2773 c 0,6.9532 1.72,13.6993 5.16,20.2149 3.44,6.5118 8.3,11.4848 14.6,14.9098 6.3,3.438 13.34,5.157 21.1,5.157 12,0 21.84,-3.907 29.52,-11.68 7.66,-7.7813 11.5,-17.6251 11.5,-29.5001 0,-11.9922 -3.87,-21.9258 -11.62,-29.8164 -7.74,-7.8906 -17.49,-11.8164 -29.24,-11.8164 -7.28,0 -14.21,1.6406 -20.81,4.9219 -6.6,3.2812 -11.61,8.0976 -15.05,14.4336 -3.44,6.3476 -5.16,14.0742 -5.16,23.1757 l 0,0 z m 21.56,-1.125 c 0,-7.8906 1.87,-13.9062 5.6,-18.0937 3.74,-4.1914 8.34,-6.2813 13.82,-6.2813 5.47,0 10.06,2.0899 13.77,6.2813 3.71,4.1875 5.56,10.2734 5.56,18.2422 0,7.7617 -1.85,13.7578 -5.56,17.9492 -3.71,4.1797 -8.3,6.277 -13.77,6.277 -5.48,0 -10.08,-2.0973 -13.82,-6.277 -3.73,-4.1914 -5.6,-10.2148 -5.6,-18.0977"
         id="path88"
         style="fill:#2e3190;fill-opacity:1;fill-rule:nonzero;stroke:none" /><path
         d="m 4039.64,116.84 53.59,0 0,-17.0314 -32.66,0 0,-62.3438 -20.93,0 0,79.3752"
         id="path90"
         style="fill:#2e3190;fill-opacity:1;fill-rule:nonzero;stroke:none" /><path
         d="m 4146.24,116.84 20.15,0 0,-49.922 32.35,49.922 20.62,0 0,-79.3752 -20.15,0 0,50.6446 -32.82,-50.6446 -20.15,0 0,79.3752"
         id="path92"
         style="fill:#2e3190;fill-opacity:1;fill-rule:nonzero;stroke:none" /><path
         d="m 4282.8,116.84 20.16,0 0,-49.922 32.34,49.922 20.63,0 0,-79.3752 -20.16,0 0,50.6446 -32.81,-50.6446 -20.16,0 0,79.3752"
         id="path94"
         style="fill:#2e3190;fill-opacity:1;fill-rule:nonzero;stroke:none" /><path
         d="m 2197.82,78.2773 c 0,6.9532 1.72,13.6993 5.16,20.2149 3.43,6.5118 8.31,11.4848 14.61,14.9098 6.29,3.438 13.33,5.157 21.1,5.157 12,0 21.83,-3.907 29.51,-11.68 7.68,-7.7813 11.5,-17.6251 11.5,-29.5001 0,-11.9922 -3.87,-21.9258 -11.62,-29.8164 -7.74,-7.8906 -17.49,-11.8164 -29.24,-11.8164 -7.28,0 -14.21,1.6406 -20.81,4.9219 -6.6,3.2812 -11.62,8.0976 -15.05,14.4336 -3.44,6.3476 -5.16,14.0742 -5.16,23.1757 l 0,0 z m 21.57,-1.125 c 0,-7.8906 1.86,-13.9062 5.6,-18.0937 3.73,-4.1914 8.33,-6.2813 13.81,-6.2813 5.47,0 10.06,2.0899 13.78,6.2813 3.71,4.1875 5.56,10.2734 5.56,18.2422 0,7.7617 -1.85,13.7578 -5.56,17.9492 -3.72,4.1797 -8.31,6.277 -13.78,6.277 -5.48,0 -10.08,-2.0973 -13.81,-6.277 -3.74,-4.1914 -5.6,-10.2148 -5.6,-18.0977"
         id="path96"
         style="fill:#2e3190;fill-opacity:1;fill-rule:nonzero;stroke:none" /><path
         d="m 2339.28,116.734 20.95,0 0,-29.0543 30.14,0 0,29.0543 20.94,0 0,-79.3668 -20.94,0 0,33.2812 -30.14,0 0,-33.2812 -20.95,0 0,79.3668"
         id="path98"
         style="fill:#2e3190;fill-opacity:1;fill-rule:nonzero;stroke:none" /></g></g></svg>